<svg id="Capa_1" enable-background="new 0 0 512 512" height="512" viewBox="0 0 512 512" width="512" xmlns="http://www.w3.org/2000/svg"><g><circle cx="256" cy="256" fill="#f4d752" r="256"/><path d="m364.325 104.848-130.97-35.848c-66.459 0-137.997 285.752-137.997 285.752s40.032 40.034 40.049 40.051c1.361 6.664 4.751 12.594 9.486 17.132.163.17 50.026 50.037 99.792 99.802 3.752.164 7.522.263 11.315.263 141.385 0 256-114.615 256-256 0-1.178-.029-2.35-.045-3.524-58.888-58.889-147.63-147.628-147.63-147.628z" fill="#eabd3e"/><g><g><path d="m222.398 421.086h-54.785c-18.125 0-32.871-14.746-32.871-32.871v-23.375h21.914v23.375c0 6.042 4.915 10.957 10.957 10.957h54.785z" fill="#4e5a61"/></g><g><path d="m255.269 443c-24.577 0-43.828-14.439-43.828-32.871 0-18.433 19.251-32.871 43.828-32.871s43.828 14.438 43.828 32.871c.001 18.432-19.251 32.871-43.828 32.871z" fill="#6e7b84"/></g><path d="m299.098 410.129c0-18.433-19.252-32.871-43.828-32.871v65.742c24.576 0 43.828-14.439 43.828-32.871z" fill="#4e5a61"/><g><g><path d="m366.301 375.797c-43.009 0-76.699-38.503-76.699-87.656 0-28.699 11.404-54.601 31.287-71.064 7.97-6.599 12.541-16.64 12.541-27.549 0-30.208-24.577-54.785-54.785-54.785h-45.289c-30.209 0-54.785 24.577-54.785 54.785 0 10.909 4.571 20.95 12.54 27.549 19.884 16.463 31.288 42.365 31.288 71.064 0 49.153-33.69 87.656-76.699 87.656-43.01 0-76.7-38.504-76.7-87.656 0-28.699 11.404-54.601 31.287-71.064 7.97-6.599 12.541-16.64 12.541-27.549 0-66.46 54.068-120.528 120.527-120.528h45.289c66.459 0 120.527 54.068 120.527 120.527 0 10.909 4.571 20.95 12.54 27.549 19.885 16.464 31.289 42.365 31.289 71.065 0 49.152-33.69 87.656-76.699 87.656z" fill="#6e7b84"/></g></g><path d="m255.269 69v65.742h23.375c30.209 0 54.785 24.577 54.785 54.785 0 10.909-4.571 20.95-12.541 27.549-19.884 16.463-31.287 42.365-31.287 71.064 0 49.153 33.69 87.656 76.699 87.656s76.699-38.503 76.699-87.656c0-28.699-11.404-54.601-31.288-71.064-7.969-6.599-12.54-16.64-12.54-27.549.001-66.459-54.067-120.527-120.527-120.527z" fill="#4e5a61"/><g><g><path d="m145.699 331.969c-18.432 0-32.871-19.252-32.871-43.828 0-24.577 14.439-43.828 32.871-43.828 18.433 0 32.871 19.251 32.871 43.828 0 24.576-14.438 43.828-32.871 43.828z" fill="#4e5a61"/></g><g><path d="m366.301 331.969c-18.433 0-32.871-19.252-32.871-43.828 0-24.577 14.439-43.828 32.871-43.828s32.871 19.251 32.871 43.828c0 24.576-14.439 43.828-32.871 43.828z" fill="#424b52"/></g></g></g></g></svg>